HIERARCHY
ROOT Hips
{
	OFFSET 27.261290 0.053301 7.659307
	CHANNELS 6 Xposition Yposition Zposition Zrotation Yrotation Xrotation 
	JOINT Spine
	{
		OFFSET -0.000036 8.340404 -2.713908
		CHANNELS 3 Zrotation Yrotation Xrotation
		JOINT Spine1
		{
			OFFSET -0.000059 11.909938 -2.100048
			CHANNELS 3 Zrotation Yrotation Xrotation
			JOINT Spine2
			{
				OFFSET -0.000011 12.047657 -1.054019
				CHANNELS 3 Zrotation Yrotation Xrotation
				JOINT Spine3
				{
					OFFSET 0.000017 12.093712 0.000029
					CHANNELS 3 Zrotation Yrotation Xrotation
					JOINT Neck
					{
						OFFSET -0.000056 15.549044 1.554927
						CHANNELS 3 Zrotation Yrotation Xrotation
						JOINT Neck1
						{
							OFFSET 0.000001 4.687317 0.410089
							CHANNELS 3 Zrotation Yrotation Xrotation
							JOINT Head
							{
								OFFSET 0.000011 4.633859 0.817019
								CHANNELS 3 Zrotation Yrotation Xrotation
								JOINT HeadEnd
								{
									OFFSET -0.000035 9.727724 -0.000020
									CHANNELS 3 Zrotation Yrotation Xrotation
									End Site
									{
										OFFSET 0.000000 0.000000 0.000000
									}
								}
							}
						}
					}
					JOINT RightShoulder
					{
						OFFSET -0.000083 11.106484 6.072624
						CHANNELS 3 Zrotation Yrotation Xrotation
						JOINT RightArm
						{
							OFFSET -19.427968 0.000077 0.000014
							CHANNELS 3 Zrotation Yrotation Xrotation
							JOINT RightForeArm
							{
								OFFSET -29.350740 0.000006 0.000039
								CHANNELS 3 Zrotation Yrotation Xrotation
								JOINT RightHand
								{
									OFFSET -27.018098 -0.000011 -0.000094
									CHANNELS 3 Zrotation Yrotation Xrotation
									JOINT RightHandMiddle1
									{
										OFFSET -9.244029 -0.000033 0.000027
										CHANNELS 3 Zrotation Yrotation Xrotation
										JOINT RightHandMiddle2
										{
											OFFSET -4.870034 0.000038 0.000003
											CHANNELS 3 Zrotation Yrotation Xrotation
											JOINT RightHandMiddle3
											{
												OFFSET -3.169042 -0.000048 0.000022
												CHANNELS 3 Zrotation Yrotation Xrotation
												JOINT RightHandMiddle4
												{
													OFFSET -1.888403 0.000050 -0.000006
													CHANNELS 3 Zrotation Yrotation Xrotation
													End Site
													{
														OFFSET 0.000000 0.000000 0.000000
													}
												}
											}
										}
									}
									JOINT RightHandRing
									{
										OFFSET -0.250026 -0.250025 -0.956504
										CHANNELS 3 Zrotation Yrotation Xrotation
										JOINT RightHandRing1
										{
											OFFSET -8.140198 -0.000022 -0.734590
											CHANNELS 3 Zrotation Yrotation Xrotation
											JOINT RightHandRing2
											{
												OFFSET -4.501545 -0.000034 -0.406227
												CHANNELS 3 Zrotation Yrotation Xrotation
												JOINT RightHandRing3
												{
													OFFSET -3.068835 -0.000006 -0.276965
													CHANNELS 3 Zrotation Yrotation Xrotation
													JOINT RightHandRing4
													{
														OFFSET -1.869881 0.000028 -0.168747
														CHANNELS 3 Zrotation Yrotation Xrotation
														End Site
														{
															OFFSET 0.000000 0.000000 0.000000
														}
													}
												}
											}
										}
										JOINT RightHandPinky
										{
											OFFSET -0.162991 -0.249978 -0.975041
											CHANNELS 3 Zrotation Yrotation Xrotation
											JOINT RightHandPinky1
											{
												OFFSET -6.681506 0.000020 -1.494108
												CHANNELS 3 Zrotation Yrotation Xrotation
												JOINT RightHandPinky2
												{
													OFFSET -3.580976 0.000010 -0.800783
													CHANNELS 3 Zrotation Yrotation Xrotation
													JOINT RightHandPinky3
													{
														OFFSET -2.276503 -0.000019 -0.509109
														CHANNELS 3 Zrotation Yrotation Xrotation
														JOINT RightHandPinky4
														{
															OFFSET -1.690375 0.000000 -0.377991
															CHANNELS 3 Zrotation Yrotation Xrotation
															End Site
															{
																OFFSET 0.000000 0.000000 0.000000
															}
														}
													}
												}
											}
										}
									}
									JOINT RightHandIndex
									{
										OFFSET -0.250006 -0.249974 0.956479
										CHANNELS 3 Zrotation Yrotation Xrotation
										JOINT RightHandIndex1
										{
											OFFSET -8.934102 0.000031 0.806215
											CHANNELS 3 Zrotation Yrotation Xrotation
											JOINT RightHandIndex2
											{
												OFFSET -4.694673 0.000013 0.423653
												CHANNELS 3 Zrotation Yrotation Xrotation
												JOINT RightHandIndex3
												{
													OFFSET -2.811704 0.000022 0.253749
													CHANNELS 3 Zrotation Yrotation Xrotation
													JOINT RightHandIndex4
													{
														OFFSET -1.709956 0.000005 0.154328
														CHANNELS 3 Zrotation Yrotation Xrotation
														End Site
														{
															OFFSET 0.000000 0.000000 0.000000
														}
													}
												}
											}
										}
										JOINT RightHandThumb1
										{
											OFFSET -0.163039 -0.749965 0.975111
											CHANNELS 3 Zrotation Yrotation Xrotation
											JOINT RightHandThumb2
											{
												OFFSET -5.411672 0.835507 2.244682
												CHANNELS 3 Zrotation Yrotation Xrotation
												JOINT RightHandThumb3
												{
													OFFSET -3.567174 0.550787 1.479601
													CHANNELS 3 Zrotation Yrotation Xrotation
													JOINT RightHandThumb4
													{
														OFFSET -2.150547 0.332025 0.892053
														CHANNELS 3 Zrotation Yrotation Xrotation
														End Site
														{
															OFFSET 0.000000 0.000000 0.000000
														}
													}
												}
											}
										}
									}
								}
							}
						}
					}
					JOINT LeftShoulder
					{
						OFFSET -0.000040 11.106515 6.072605
						CHANNELS 3 Zrotation Yrotation Xrotation
						JOINT LeftArm
						{
							OFFSET 19.427859 0.000040 0.000007
							CHANNELS 3 Zrotation Yrotation Xrotation
							JOINT LeftForeArm
							{
								OFFSET 29.350757 -0.000018 -0.000025
								CHANNELS 3 Zrotation Yrotation Xrotation
								JOINT LeftHand
								{
									OFFSET 27.018028 -0.000024 -0.000004
									CHANNELS 3 Zrotation Yrotation Xrotation
									JOINT LeftHandMiddle1
									{
										OFFSET 9.402682 -0.000010 -0.000022
										CHANNELS 3 Zrotation Yrotation Xrotation
										JOINT LeftHandMiddle2
										{
											OFFSET 4.950084 0.000025 -0.000010
											CHANNELS 3 Zrotation Yrotation Xrotation
											JOINT LeftHandMiddle3
											{
												OFFSET 3.211942 -0.000019 -0.000012
												CHANNELS 3 Zrotation Yrotation Xrotation
												JOINT LeftHandMiddle4
												{
													OFFSET 1.927597 0.000037 0.000039
													CHANNELS 3 Zrotation Yrotation Xrotation
													End Site
													{
														OFFSET 0.000000 0.000000 0.000000
													}
												}
											}
										}
									}
									JOINT LeftHandRing
									{
										OFFSET 0.250013 -0.250000 -0.906148
										CHANNELS 3 Zrotation Yrotation Xrotation
										JOINT LeftHandRing1
										{
											OFFSET 8.286076 0.000019 -0.747703
											CHANNELS 3 Zrotation Yrotation Xrotation
											JOINT LeftHandRing2
											{
												OFFSET 4.585477 -0.000018 -0.413808
												CHANNELS 3 Zrotation Yrotation Xrotation
												JOINT LeftHandRing3
												{
													OFFSET 3.124427 -0.000048 -0.281975
													CHANNELS 3 Zrotation Yrotation Xrotation
													JOINT LeftHandRing4
													{
														OFFSET 1.908744 -0.000010 -0.172301
														CHANNELS 3 Zrotation Yrotation Xrotation
														End Site
														{
															OFFSET 0.000000 0.000000 0.000000
														}
													}
												}
											}
										}
										JOINT LeftHandPinky
										{
											OFFSET 0.167576 -0.249956 -0.924970
											CHANNELS 3 Zrotation Yrotation Xrotation
											JOINT LeftHandPinky1
											{
												OFFSET 6.823510 -0.000010 -1.525886
												CHANNELS 3 Zrotation Yrotation Xrotation
												JOINT LeftHandPinky2
												{
													OFFSET 3.642835 -0.000008 -0.814642
													CHANNELS 3 Zrotation Yrotation Xrotation
													JOINT LeftHandPinky3
													{
														OFFSET 2.333085 0.000004 -0.521759
														CHANNELS 3 Zrotation Yrotation Xrotation
														JOINT LeftHandPinky4
														{
															OFFSET 1.725465 0.000010 -0.385857
															CHANNELS 3 Zrotation Yrotation Xrotation
															End Site
															{
																OFFSET 0.000000 0.000000 0.000000
															}
														}
													}
												}
											}
										}
									}
									JOINT LeftHandIndex
									{
										OFFSET 0.249951 -0.249963 0.906141
										CHANNELS 3 Zrotation Yrotation Xrotation
										JOINT LeftHandIndex1
										{
											OFFSET 9.087980 0.000048 0.820152
											CHANNELS 3 Zrotation Yrotation Xrotation
											JOINT LeftHandIndex2
											{
												OFFSET 4.776558 0.000014 0.431069
												CHANNELS 3 Zrotation Yrotation Xrotation
												JOINT LeftHandIndex3
												{
													OFFSET 2.865094 -0.000007 0.258573
													CHANNELS 3 Zrotation Yrotation Xrotation
													JOINT LeftHandIndex4
													{
														OFFSET 1.745465 -0.000030 0.157522
														CHANNELS 3 Zrotation Yrotation Xrotation
														End Site
														{
															OFFSET 0.000000 0.000000 0.000000
														}
													}
												}
											}
										}
										JOINT LeftHandThumb1
										{
											OFFSET 0.167558 -0.749973 0.924943
											CHANNELS 3 Zrotation Yrotation Xrotation
											JOINT LeftHandThumb2
											{
												OFFSET 5.551461 0.857140 2.302721
												CHANNELS 3 Zrotation Yrotation Xrotation
												JOINT LeftHandThumb3
												{
													OFFSET 3.625612 0.559758 1.503874
													CHANNELS 3 Zrotation Yrotation Xrotation
													JOINT LeftHandThumb4
													{
														OFFSET 2.195268 0.338949 0.910573
														CHANNELS 3 Zrotation Yrotation Xrotation
														End Site
														{
															OFFSET 0.000000 0.000000 0.000000
														}
													}
												}
											}
										}
									}
								}
							}
						}
					}
				}
			}
		}
	}
	JOINT RightUpLeg
	{
		OFFSET -8.786510 0.000003 0.000016
		CHANNELS 3 Zrotation Yrotation Xrotation
		JOINT RightLeg
		{
			OFFSET -0.000023 -42.170424 -0.000034
			CHANNELS 3 Zrotation Yrotation Xrotation
			JOINT RightFoot
			{
				OFFSET -0.000023 -45.949101 0.000048
				CHANNELS 3 Zrotation Yrotation Xrotation
				JOINT RightForeFoot
				{
					OFFSET 0.000005 -4.685750 0.000001
					CHANNELS 3 Zrotation Yrotation Xrotation
					JOINT RightToeBase
					{
						OFFSET -0.000046 -0.000013 18.351073
						CHANNELS 3 Zrotation Yrotation Xrotation
						JOINT RightToeBaseEnd
						{
							OFFSET -0.000027 -0.000024 6.416937
							CHANNELS 3 Zrotation Yrotation Xrotation
							End Site
							{
								OFFSET 0.000000 0.000000 0.000000
							}
						}
					}
				}
			}
		}
	}
	JOINT LeftUpLeg
	{
		OFFSET 8.786523 -0.000085 0.000018
		CHANNELS 3 Zrotation Yrotation Xrotation
		JOINT LeftLeg
		{
			OFFSET 0.000065 -42.170405 0.000013
			CHANNELS 3 Zrotation Yrotation Xrotation
			JOINT LeftFoot
			{
				OFFSET 0.000024 -45.949178 -0.000023
				CHANNELS 3 Zrotation Yrotation Xrotation
				JOINT LeftForeFoot
				{
					OFFSET -0.000008 -4.685823 0.000046
					CHANNELS 3 Zrotation Yrotation Xrotation
					JOINT LeftToeBase
					{
						OFFSET 0.000032 -0.000011 18.351073
						CHANNELS 3 Zrotation Yrotation Xrotation
						JOINT LeftToeBaseEnd
						{
							OFFSET 0.000060 -0.000029 7.522013
							CHANNELS 3 Zrotation Yrotation Xrotation
							End Site
							{
								OFFSET 0.000000 0.000000 0.000000
							}
						}
					}
				}
			}
		}
	}
}
MOTION
Frames: 4
Frame Time: 0.066667
19.194406 -0.399158 8.931602 10.661376 22.299746 -12.998467 -7.811370 2.526227 15.926666 -0.296800 0.175333 -0.324364 -0.780849 0.842400 0.209615 0.280432 0.534502 6.424341 8.012159 -2.293647 9.278070 -11.905544 1.637408 5.130009 -2.895918 0.513747 0.347222 -0.001093 -0.002085 0.001583 4.711566 -9.869727 -0.773577 72.238335 -0.610314 5.611922 0.000689 30.631662 -6.686652 -2.221838 -7.289038 -0.006281 -0.206191 0.072053 0.000274 -0.634577 -0.001711 -0.003050 -0.187369 -0.000660 0.001403 -0.002118 0.001941 0.000999 -0.049560 -0.022512 -0.011538 -0.075471 0.098357 0.005135 0.111031 0.000372 0.006309 0.123641 0.004484 -0.020149 -0.004854 0.005104 -0.002328 -0.080875 0.022279 -0.037658 0.162586 -0.550273 -0.025021 0.037707 0.017836 -0.013777 0.257567 0.004222 -0.032211 -0.007535 -0.001108 0.000653 0.020544 -0.003491 0.018648 0.290774 0.165898 0.034339 -0.387814 0.000260 -0.044415 -0.452032 0.004073 -0.043445 0.003946 -0.007561 -0.004075 -0.239726 -0.223721 0.035276 -0.276970 0.133681 -0.072258 -0.164719 0.065707 -0.052653 -0.009722 -0.001685 -0.002320 -6.405533 8.778682 -0.975823 -69.164268 1.527397 6.432923 0.000235 -36.751831 -1.193241 -19.364565 9.100875 0.029841 -0.241166 -0.189613 0.007495 0.788466 -0.000470 0.002031 -0.039231 -0.000980 0.001014 -0.006252 0.006608 0.001569 -0.019107 0.005990 -0.046927 -0.565337 -0.246597 -0.051654 -0.135092 0.014575 -0.016280 0.060210 -0.010499 -0.000816 0.005743 -0.002485 -0.001126 -0.004067 -0.004366 0.118840 0.432459 0.020710 0.097572 0.434413 0.074798 0.091221 0.413777 0.028158 0.085489 -0.004048 0.007386 0.000044 -0.032445 -0.123840 0.027745 -0.552159 -0.179746 0.043250 -0.029947 -0.031401 -0.006410 -0.196438 -0.005072 0.017669 -0.005564 0.002876 -0.002486 -0.132120 -0.033710 -0.025707 -0.006420 -0.087657 0.048179 0.000000 0.000000 0.000000 0.000896 0.002277 -0.002804 -21.531738 6.292641 10.762987 -0.003276 -0.001068 17.003326 -0.000000 -0.000000 -0.000000 0.000000 -0.000000 0.000000 -0.000000 -0.000000 -0.000000 0.000000 0.000000 0.000000 -20.383921 -1.341547 24.012342 0.004294 0.001240 0.721468 0.000000 0.000000 -0.000000 0.000000 -0.000000 0.000000 -0.000000 0.000000 -0.000000 0.000000 -0.000000 -0.000000 
19.126804 -0.393671 8.986512 10.608169 22.244299 -13.014414 -7.866733 2.532834 15.866485 -0.310753 0.178467 -0.328438 -0.800291 0.838289 0.216126 0.273561 0.531053 6.436654 8.038777 -2.241841 9.148933 -11.861787 1.754341 5.178709 -2.887785 0.518864 0.385769 -0.001272 -0.002161 0.001465 4.719716 -9.821228 -0.769809 72.327362 -0.607245 5.629827 0.000609 30.680973 -6.763011 -2.390577 -7.299661 -0.006796 -0.223052 0.080694 0.000262 -0.633950 -0.001718 -0.003060 -0.200265 -0.000667 0.001394 -0.002124 0.001930 0.001011 -0.050583 -0.019586 0.003454 -0.093659 0.108545 0.006833 0.093781 0.000778 0.007932 0.113848 0.004465 -0.019253 -0.004847 0.005122 -0.002307 -0.080943 0.026833 -0.032446 0.194012 -0.547499 -0.031971 0.051631 0.019928 -0.016775 0.248129 0.003946 -0.030045 -0.007538 -0.001080 0.000627 0.023114 -0.011151 0.020312 0.284243 0.169547 0.033912 -0.365841 -0.000247 -0.042467 -0.456082 0.004145 -0.043820 0.003947 -0.007582 -0.004102 -0.245188 -0.238147 -0.004747 -0.268366 0.150149 -0.066595 -0.156416 0.060584 -0.049981 -0.009709 -0.001728 -0.002353 -6.392541 8.752529 -0.970736 -69.192314 1.390229 6.914663 0.000318 -37.012165 -0.959467 -19.281160 9.266964 0.028296 -0.250332 -0.204518 0.007501 0.789798 -0.000481 0.002037 -0.044518 -0.000955 0.001017 -0.006251 0.006601 0.001553 -0.018267 0.003839 -0.035011 -0.564103 -0.253057 -0.051559 -0.105684 0.014559 -0.013636 0.054826 -0.010506 -0.001288 0.005737 -0.002519 -0.001116 -0.000868 -0.004634 0.128866 0.400008 0.000442 0.090393 0.438727 0.075255 0.092297 0.425898 0.027773 0.088273 -0.004056 0.007415 0.000060 -0.031830 -0.117740 0.027077 -0.541928 -0.184048 0.042474 -0.024967 -0.031022 -0.006722 -0.191432 -0.005225 0.017172 -0.005565 0.002891 -0.002485 -0.122679 -0.028265 -0.072806 -0.012355 -0.093079 0.050958 0.000000 0.000000 0.000000 0.000907 0.002278 -0.002841 -21.439987 6.451321 10.701720 -0.003064 -0.001282 16.938511 -0.000000 -0.000000 -0.000000 0.000000 -0.000000 0.000000 -0.000000 -0.000000 -0.000000 0.000000 0.000000 0.000000 -20.343584 -1.378979 24.030727 0.004406 0.001117 0.704979 0.000000 0.000000 -0.000000 0.000000 -0.000000 0.000000 -0.000000 0.000000 -0.000000 0.000000 -0.000000 -0.000000 
19.057317 -0.392125 8.994657 10.556181 22.142155 -13.078472 -7.896647 2.536466 15.844604 -0.319436 0.179557 -0.325571 -0.807590 0.823973 0.235584 0.284354 0.527005 6.461964 8.076329 -2.200729 9.130695 -11.852921 1.857232 5.189994 -2.893091 0.525915 0.410507 -0.001370 -0.002268 0.001389 4.756012 -9.797082 -0.773932 72.345535 -0.610113 5.635973 0.000371 30.838015 -6.820190 -2.483927 -7.301905 -0.007188 -0.227602 0.084343 0.000240 -0.625528 -0.001749 -0.003066 -0.203229 -0.000673 0.001373 -0.002120 0.001908 0.001037 -0.051666 -0.019338 0.010617 -0.099758 0.113207 0.007441 0.090009 0.001226 0.008285 0.111581 0.004445 -0.019037 -0.004839 0.005133 -0.002286 -0.081581 0.027495 -0.028010 0.209233 -0.546728 -0.035401 0.059023 0.021192 -0.018304 0.243508 0.003855 -0.028969 -0.007549 -0.001064 0.000615 0.025061 -0.013624 0.021536 0.287807 0.170664 0.034310 -0.344730 -0.000433 -0.040574 -0.453574 0.004164 -0.043644 0.003953 -0.007591 -0.004113 -0.246280 -0.242305 -0.021723 -0.264765 0.162013 -0.063577 -0.154415 0.059512 -0.049497 -0.009711 -0.001744 -0.002369 -6.424938 8.735049 -0.974017 -69.136230 1.297696 7.095066 0.000392 -37.310909 -0.714370 -19.146435 9.378805 0.026708 -0.256617 -0.211890 0.007509 0.787737 -0.000484 0.002028 -0.048548 -0.000942 0.001016 -0.006258 0.006603 0.001540 -0.017867 0.003345 -0.028906 -0.565290 -0.257537 -0.051691 -0.092771 0.014447 -0.012515 0.053163 -0.010522 -0.001422 0.005746 -0.002523 -0.001080 0.000653 -0.004755 0.132989 0.384678 -0.006209 0.087005 0.439206 0.075570 0.092552 0.431063 0.027725 0.089466 -0.004056 0.007431 0.000068 -0.031846 -0.115774 0.026152 -0.541018 -0.185977 0.042483 -0.026429 -0.030926 -0.006501 -0.187798 -0.005327 0.016835 -0.005560 0.002924 -0.002510 -0.118534 -0.022426 -0.091709 -0.015514 -0.094705 0.052209 0.000000 0.000000 0.000000 0.000926 0.002282 -0.002867 -21.337561 6.526160 10.710381 -0.002876 -0.001451 16.896599 -0.000000 -0.000000 -0.000000 0.000000 -0.000000 0.000000 -0.000000 -0.000000 -0.000000 0.000000 0.000000 0.000000 -20.285244 -1.296022 24.052479 0.004435 0.001090 0.728124 0.000000 0.000000 -0.000000 0.000000 0.000000 0.000000 -0.000000 0.000000 -0.000000 0.000000 -0.000000 -0.000000 
18.998092 -0.394701 8.979404 10.507441 21.992874 -13.190944 -7.900364 2.536066 15.881765 -0.322187 0.177638 -0.315837 -0.796565 0.793820 0.269260 0.317587 0.520753 6.491203 8.124359 -2.169278 9.220828 -11.887821 1.931144 5.186103 -2.909953 0.533635 0.419555 -0.001239 -0.002437 0.001376 4.810397 -9.796523 -0.784225 72.278687 -0.633926 5.550764 -0.000005 31.128914 -6.886884 -2.488506 -7.270436 -0.007124 -0.217383 0.080968 0.000210 -0.607691 -0.001802 -0.003073 -0.194035 -0.000678 0.001345 -0.002102 0.001878 0.001077 -0.053068 -0.022547 0.008019 -0.091176 0.110055 0.006711 0.104841 0.001642 0.006894 0.118898 0.004419 -0.019682 -0.004835 0.005132 -0.002269 -0.083217 0.023378 -0.024340 0.204286 -0.551303 -0.034446 0.058450 0.021262 -0.018053 0.244585 0.003993 -0.029184 -0.007571 -0.001058 0.000614 0.026200 -0.009585 0.022821 0.303691 0.169413 0.035707 -0.325035 -0.000267 -0.038796 -0.444231 0.004125 -0.042895 0.003963 -0.007582 -0.004104 -0.241680 -0.233501 -0.010185 -0.266445 0.169768 -0.063194 -0.161032 0.063964 -0.051950 -0.009733 -0.001730 -0.002362 -6.501969 8.709477 -0.982393 -69.005951 1.288126 6.883006 0.000518 -37.605968 -0.519433 -18.967897 9.399645 0.025500 -0.258115 -0.209600 0.007518 0.783423 -0.000477 0.002003 -0.048695 -0.000946 0.001010 -0.006271 0.006620 0.001533 -0.017993 0.004736 -0.030874 -0.569146 -0.258277 -0.052066 -0.101892 0.014399 -0.013423 0.056970 -0.010530 -0.001062 0.005771 -0.002489 -0.001021 0.000141 -0.004884 0.130253 0.390934 0.003857 0.088409 0.433849 0.075896 0.091523 0.428269 0.028147 0.088843 -0.004052 0.007434 0.000065 -0.032523 -0.118991 0.024806 -0.550262 -0.184791 0.043345 -0.032991 -0.031190 -0.005879 -0.185036 -0.005399 0.016611 -0.005551 0.002975 -0.002565 -0.121012 -0.017206 -0.076528 -0.015281 -0.092240 0.051677 0.000000 0.000000 0.000000 0.000954 0.002285 -0.002882 -21.249119 6.499268 10.768845 -0.002697 -0.001539 16.894276 -0.000000 -0.000000 -0.000000 0.000000 -0.000000 0.000000 0.000000 -0.000000 -0.000000 0.000000 0.000000 0.000000 -20.203350 -1.087778 24.069014 0.004342 0.001203 0.786860 0.000000 0.000000 -0.000000 0.000000 -0.000000 0.000000 -0.000000 0.000000 -0.000000 0.000000 -0.000000 0.000000 
